<?xml version="1.0" ?><!DOCTYPE svg  PUBLIC '-//W3C//DTD SVG 1.1//EN'  'http://www.w3.org/Graphics/SVG/1.1/DTD/svg11.dtd'><svg height="59.6px" id="Ebene_1" style="enable-background:new 0 0 34 59.6;" version="1.1" viewBox="0 0 34 59.6" width="34px" xml:space="preserve" xmlns="http://www.w3.org/2000/svg" xmlns:xlink="http://www.w3.org/1999/xlink"><g><path d="M30,36.6h-12c-1-1.8-4.3-8.7,0.1-13.3c7.5-7.8,0.1-16.3,0-16.4c-0.4-0.4-1-0.4-1.4-0.1c-0.4,0.4-0.4,1-0.1,1.4   c0.3,0.3,6.3,7.2,0,13.6c-2.6,2.7-3.5,6.4-2.4,10.7c0.4,1.6,1,3,1.5,4H4c-0.6,0-1,0.4-1,1v7c0,0.6,0.4,1,1,1h2l1.8,13.1   c0.1,0.5,0.5,0.9,1,0.9h17.4c0.5,0,0.9-0.4,1-0.9L29,45.6h1c0.6,0,1-0.4,1-1v-7C31,37.1,30.6,36.6,30,36.6z M5,38.6h24v5h-0.9H6.8   H5V38.6z M25.3,57.6H9.6L8,45.6h19L25.3,57.6z"/><path d="M11.8,35.3c0.1,0.1,0.3,0.1,0.5,0.1c0.4,0,0.7-0.2,0.9-0.5c0.3-0.5,0.1-1.1-0.4-1.3c-1.7-0.9-3.9-2.7-5.9-4.9   C3,24.5,1.7,21.1,2,20.5c0.6-0.3,3.9,1.3,7.7,5.4c0.5,0.6,1,1.1,1.5,1.7c0.3,0.4,1,0.5,1.4,0.2c0.4-0.3,0.5-1,0.2-1.4   c-0.5-0.6-1-1.2-1.6-1.8c-1.9-2.1-3.9-3.8-5.7-4.9c-2.2-1.3-3.8-1.5-4.8-0.7c-2.3,2.1,1.8,7.9,4.6,11C7.5,32.3,9.8,34.3,11.8,35.3z   "/><path d="M13.7,21.9c0.2,0.1,0.4,0.2,0.6,0.2c0.3,0,0.6-0.1,0.8-0.4c0.3-0.4,0.2-1.1-0.2-1.4c-1.3-1-2.8-2.3-4.1-3.7   C7,12.5,5.7,9.1,6,8.5c0.6-0.3,3.9,1.3,7.7,5.4c0.9,1,1.8,2.1,2.5,3.1c0.3,0.5,0.9,0.6,1.4,0.2c0.5-0.3,0.6-0.9,0.2-1.4   c-0.8-1.1-1.7-2.2-2.7-3.3c-1.9-2.1-3.9-3.8-5.7-4.9C7.3,6.3,5.7,6.1,4.7,7c-2.3,2.1,1.8,7.9,4.6,11C10.7,19.5,12.2,20.9,13.7,21.9   z"/><path d="M22.3,8.3c0.5-0.5,1-1,1.6-1.6C28,3,31.4,1.7,32,2c0.3,0.6-1.3,3.9-5.4,7.7c-1.3,1.2-2.6,2.2-3.9,3   c-0.5,0.3-0.6,0.9-0.3,1.4c0.2,0.3,0.5,0.5,0.8,0.5c0.2,0,0.4-0.1,0.5-0.2c1.3-0.9,2.8-2,4.1-3.2C31,8.4,35.6,3,33.5,0.7   c-2.1-2.3-7.9,1.8-11,4.6c-0.6,0.5-1.2,1.1-1.7,1.7c-0.4,0.4-0.4,1,0,1.4C21.3,8.7,21.9,8.7,22.3,8.3z"/><path d="M20.5,21.4c-0.4,0.4-0.5,1-0.1,1.4c0.4,0.4,1,0.5,1.4,0.1c4-3.4,6.8-4.2,7.2-3.9c0.3,0.6-1.3,3.9-5.4,7.7   c-1.8,1.7-3.8,3.1-5.4,3.9c-0.5,0.3-0.7,0.9-0.4,1.3c0.2,0.3,0.5,0.5,0.9,0.5c0.2,0,0.3,0,0.5-0.1c1.8-0.9,3.9-2.4,5.9-4.2   c3.1-2.8,7.7-8.2,5.6-10.5C28.7,15.7,24,18.5,20.5,21.4z"/></g></svg>