<?xml version="1.0" ?><svg id="Слой_1" style="enable-background:new 0 0 512 512;" version="1.1" viewBox="0 0 512 512" xml:space="preserve" xmlns="http://www.w3.org/2000/svg" xmlns:xlink="http://www.w3.org/1999/xlink"><style type="text/css">
	.st0{fill:#FFD6C6;}
	.st1{fill:#EDF1AD;}
	.st2{fill:none;stroke:#000000;stroke-width:12;stroke-miterlimit:10;}
</style><g><g><rect class="st0" height="52.2" width="224.3" x="164.5" y="299.1"/><polygon class="st0" points="347.4,466 208.8,466 180.5,351.2 372.7,351.2   "/></g><g><path class="st1" d="M355.7,149.2c0,6.1-2.3,12.3-7,16.9l-35.2,35.2l-1.3,1.3c-9.3,9.3-24.5,9.3-33.8,0c-9.3-9.3-9.3-24.5,0-33.8    l34.5-34.6l2-2c9.3-9.3,24.5-9.3,33.8,0C353.4,136.9,355.7,143.1,355.7,149.2z"/><path class="st1" d="M313.6,201.3v67.2c0,0.9,0,1.7-0.1,2.6c-0.9,15.3-13.9,27.1-29.2,27.1h-42.9c-15.3,0-28.2-11.7-29.2-27    c0-0.1,0-0.2,0-0.3c0-0.8-0.1-1.6-0.1-2.4l0-125.3c0-26.7,20.3-49.7,47-51.6c15.4-1.1,29.5,4.8,39.5,14.8    c7.4,7.4,12.6,17.1,14.3,27.9l-34.5,34.6c-9.3,9.3-9.3,24.5,0,33.8c9.3,9.3,24.5,9.3,33.8,0L313.6,201.3z"/><path class="st1" d="M212.2,270.8L177,235.6c-9.3-9.3-9.3-24.5,0-33.8c9.3-9.3,24.5-9.3,33.8,0l1.3,1.3v65.3    C212.2,269.2,212.2,270,212.2,270.8z"/></g><rect class="st2" height="53.9" width="231.7" x="138.5" y="299.1"/><polygon class="st2" points="327.4,471.5 184.3,471.5 155,353 353.6,353  "/><path class="st2" d="M363.7,123.6c0,7.2-2.8,14.5-8.2,19.9L314.1,185l-1.6,1.6c-11,11-28.9,11-39.9,0c-11-11-11-28.9,0-39.9   l40.7-40.7l2.3-2.3c11-11,28.9-11,39.9,0C361,109.1,363.7,116.4,363.7,123.6z"/><path class="st2" d="M314.1,185v79.2c0,13.5-5.4,25.8-14,34.9h-91.5c-8.1-8.5-13.3-19.7-14-32.1c0-0.9-0.1-1.9-0.1-2.8V115.3   c0-32.9,26.9-59.8,59.8-59.8c16.4,0,31.4,6.7,42.2,17.5c8.7,8.7,14.8,20.1,16.8,32.8l-40.7,40.7c-11,11-11,28.9,0,39.9   c11,11,28.9,11,39.9,0L314.1,185z"/><path class="st2" d="M194.6,266.9l-41.5-41.5c-11-11-11-28.9,0-39.9c11-11,28.9-11,39.9,0l1.6,1.6v77   C194.6,265.1,194.6,266,194.6,266.9z"/><g><g><path d="M239.7,111.2c7.7,0,7.7-12,0-12C231.9,99.2,231.9,111.2,239.7,111.2L239.7,111.2z"/></g></g><g><g><path d="M226.1,200.8c7.7,0,7.7-12,0-12C218.4,188.8,218.4,200.8,226.1,200.8L226.1,200.8z"/></g></g><g><g><path d="M264.4,257.7c7.7,0,7.7-12,0-12C256.7,245.7,256.7,257.7,264.4,257.7L264.4,257.7z"/></g></g><g><g><path d="M314.1,151.1c7.7,0,7.7-12,0-12C306.3,139.1,306.3,151.1,314.1,151.1L314.1,151.1z"/></g></g><g><g><path d="M169.8,212.7c7.7,0,7.7-12,0-12C162,200.7,162,212.7,169.8,212.7L169.8,212.7z"/></g></g><g><g><path d="M260.3,54.9c0-4.8,0-9.6,0-14.4c0-7.7-12-7.7-12,0c0,4.8,0,9.6,0,14.4C248.3,62.6,260.3,62.6,260.3,54.9L260.3,54.9z"/></g></g><g><g><path d="M141.3,216.8c-2.1,1.7-4.3,3.4-6.4,5.1c-1.1,0.9-1.8,2.9-1.8,4.2c0,1.5,0.7,3.2,1.8,4.2c1.1,1,2.6,1.8,4.2,1.8     c1.7-0.1,2.9-0.7,4.2-1.8c2.1-1.7,4.3-3.4,6.4-5.1c1.1-0.9,1.8-2.9,1.8-4.2c0-1.5-0.7-3.2-1.8-4.2c-1.1-1-2.6-1.8-4.2-1.8     C143.8,215.1,142.6,215.7,141.3,216.8L141.3,216.8z"/></g></g><g><g><path d="M362.6,105.1c1.8-1.8,3.6-3.6,5.4-5.5c2.2-2.2,2.4-6.3,0-8.5c-2.4-2.2-6.1-2.4-8.5,0c-1.8,1.8-3.6,3.6-5.4,5.5     c-2.2,2.2-2.4,6.3,0,8.5C356.5,107.3,360.3,107.5,362.6,105.1L362.6,105.1z"/></g></g><g><g><path d="M191.6,122.2c-3.9,0-7.9,0-11.8,0c-7.7,0-7.7,12,0,12c3.9,0,7.9,0,11.8,0C199.3,134.2,199.3,122.2,191.6,122.2     L191.6,122.2z"/></g></g><g><g><path d="M316,240c3.5,0,7.1,0,10.6,0c3.2,0,6-2.8,6-6c0-3.3-2.7-6-6-6c-3.5,0-7.1,0-10.6,0c-3.2,0-6,2.8-6,6     C310,237.2,312.8,240,316,240L316,240z"/></g></g><line class="st2" x1="184.3" x2="149.6" y1="471.5" y2="471.5"/><line class="st2" x1="124.7" x2="111.3" y1="471.5" y2="471.5"/></g></svg>