<?xml version="1.0" encoding="utf-8"?>
<!-- Generator: Adobe Illustrator 21.1.0, SVG Export Plug-In . SVG Version: 6.00 Build 0)  -->
<svg version="1.1" id="Calque_1" xmlns="http://www.w3.org/2000/svg" xmlns:xlink="http://www.w3.org/1999/xlink" x="0px" y="0px"
	 viewBox="0 0 432 432" style="enable-background:new 0 0 432 432;" xml:space="preserve">
<style type="text/css">
	.st0{fill:#CCCCCC;}
	.st1{fill:#B3B3B3;}
	.st2{fill:#D06C5D;}
	.st3{fill:#961F21;}
	.st4{fill:#8AC640;}
	.st5{fill:#CCA1CC;}
	.st6{fill:#BCD601;}
	.st7{fill:#FFCB39;}
	.st8{fill:#FC8792;}
	.st9{fill:#F5CED3;}
	.st10{fill:#1A1A1A;}
	.st11{fill:#F9F1DA;}
	.st12{fill:#E6E6E6;}
	.st13{fill:#DDC2A8;}
	.st14{fill:#97B87F;}
	.st15{fill:#FAA821;}
	.st16{fill:#333333;}
	.st17{fill:#4EBEB8;}
	.st18{fill:#ABDFEC;}
	.st19{fill:#FAA74B;}
	.st20{fill:#8C6239;}
	.st21{fill:#F06386;}
	.st22{fill:#F8E7D6;}
	.st23{fill:#D3C7BE;}
	.st24{fill:#E2D2C3;}
	.st25{fill:#9294CD;}
	.st26{fill:#E66667;}
	.st27{fill:#FFD602;}
	.st28{fill:#B776BA;}
	.st29{fill:#C69C6D;}
	.st30{fill:#E49F90;}
	.st31{fill:#EAC0B4;}
	.st32{fill:#D3B1AF;}
	.st33{fill:#F2F2F2;}
	.st34{fill:#9CCCB2;}
	.st35{fill:#CDB48C;}
	.st36{fill:#73C977;}
	.st37{fill:none;}
	.st38{fill:#EFB156;}
	.st39{fill:#D7F5F3;}
	.st40{fill:#DA407B;}
	.st41{fill:#DA4147;}
	.st42{fill:#912D61;}
	.st43{fill:#BFB49D;}
	.st44{fill:#FFFFFF;}
	.st45{fill:#23B6DB;}
	.st46{fill:#D7DD50;}
	.st47{fill:#DA444C;}
	.st48{fill:#4D4D4D;}
	.st49{fill:#97857A;}
	.st50{fill:#84735F;}
	.st51{fill:#6E2521;}
	.st52{fill:#3F3C35;}
	.st53{fill:#A1B099;}
	.st54{fill:#D4CEB9;}
	.st55{fill:#854E4C;}
	.st56{fill:#B9986D;}
	.st57{fill:#BAAC91;}
	.st58{fill:#3F4650;}
	.st59{fill:#7B7B73;}
	.st60{fill:#5A5B60;}
	.st61{fill:#984831;}
	.st62{fill:#B1885C;}
	.st63{fill:#653F34;}
	.st64{fill:#DCC69D;}
	.st65{fill:#727D6D;}
	.st66{fill:#9B7455;}
	.st67{fill:#826D56;}
	.st68{fill:#C3A88B;}
	.st69{fill:#96967A;}
	.st70{fill:#9F6B56;}
</style>
<g>
	<g>
		<path d="M203.9,233.8c0.5-0.3,0.9-0.6,1.4-0.9c2.8-1.7,5.7-3.3,8.9-4c2.2-0.5,4.4-0.5,6.6,0.4c0.7,0.3,1.3,0.6,1.9,1.1
			c2.2,1.7,2.7,4.5,0.9,6.8c-0.8,1.1-1.8,2-3,2.7c-1.5,1-3.1,1.8-4.8,2.6c-3.7,1.8-7.7,2.4-11.6,3.4c-1.6,0.4-3.2,0.8-4.9,1.2
			c0,1.4,0,2.8,0,4.2c0.4,0,0.8,0.1,1.1,0.1c5.8-0.2,11.7-0.4,17.5-0.6c4.2-0.2,8.3-0.4,12.5-0.5c3.5-0.1,2.8,0.9,1.9,13.3
			c-0.2,1.9-0.4,3.8-0.6,5.8c-0.4,5.2-3,7.8-8.2,8.2c-0.9,0.1-1.9,0.2-2.9,0.3c-0.1,1-0.3,2-0.4,2.9c-0.9,7.9-1.4,15.9-2.8,23.7
			c-0.3,1.5-0.7,2.9-1.2,4.3c-0.8,1.9-2.3,2.9-4.4,2.8c-1.1-0.1-2.3-0.2-3.4-0.4c-3.3-0.5-6.6-0.5-10-0.4c-4.5,0.2-9.1,0.3-13.6,0.4
			c-1.7,0.1-3.4,0.2-5.2,0.2c-1.9,0-3.9,0-5.8-0.2c-2.3-0.2-3.9-1.5-4.5-3.7c-0.6-2.3-1.1-4.7-1.5-7c-0.8-5-1.6-10.1-2.4-15.1
			c-0.4-2.5-0.6-5-0.8-7.5c-0.1-0.5-0.1-1-0.2-1.6c-1.6-0.2-3-0.5-4.5-0.6c-1.3-0.1-1.8-0.2-2.2-1.5c-0.5-1.8-0.9-3.5-1.2-5.3
			c-0.8-4.3-1.5-8.5-2.1-12.8c0-0.1-0.6-6.2,3.2-5.8c12,1.3,24.1,0.9,36.2,1.2c0.3,0,0.6,0,1-0.1c0-0.3,0.1-0.6,0.1-0.8
			c-0.5-3.1-1.1-6.3-2.2-9.3c-0.5-1.4-1.3-2.7-2.4-3.8c-0.5-0.5-0.9-0.6-1.5-0.4c-4.2,1-8.4,1.3-12.7,1.4c-3.7,0.1-7.5,0.1-11.3,0.1
			c-1,0-2-0.1-2.9-0.4c-2.6-0.8-3.2-3.1-1.4-5.1c1.9-2.1,4.3-3.3,6.8-4.2c2.7-0.9,5.5-1.4,8.4-1.6c1.5-0.1,3.1-0.2,4.8-0.3
			c-0.3-0.6-0.6-1.1-0.8-1.6c-3.2-6.2-5-12.7-5-19.6c0-2.1,0.4-4.2,0.6-6.4c0.1-0.5,0.2-0.9,0.4-1.4c0.8-2.3,3-2.8,4.6-0.9
			c0.7,0.8,1.2,1.7,1.5,2.7c1.6,4.5,2.8,9.2,3.4,13.9c0.5,4.5,0.8,8.9,1.1,13.4c0,0.2,0.4,2.9,1.3,3.7c1.8,1.6,3.6,3.1,5.5,4.8
			c-0.4-10.4-0.7-20.6-1.1-30.6c-1.1-0.8-2.2-1.4-3.1-2.1c-1.5-1.2-3-2.5-4.5-3.7c-2.1-1.6-3.9-3.5-5.3-5.7c-2-2.8-3.8-5.7-5-9
			c-0.5-1.4-0.9-2.9-1-4.4c-0.1-3.1,2.5-4.6,5.2-3.2c2.2,1.2,4,2.9,5.7,4.8c2.8,3,5,6.4,6.8,10.1c0.2,0.4,0.4,0.8,0.8,1.5
			c0.2-1.8,0.3-3.3,0.5-4.8c0.6-5.5,1.7-10.9,4.4-15.9c0.7-1.2,1.5-2.4,2.5-3.3c0.5-0.5,1.5-0.8,2.2-0.9c1.1-0.1,2.1,0.8,2.3,2.1
			c0.2,1.5,0.4,3,0.2,4.5c-0.8,7.3-3.2,14.1-6.2,20.7c-0.7,1.6-1.4,3.1-2.1,4.7c-0.2,0.6-0.3,1.2-0.3,1.8c0.1,4.6,0.3,9.2,0.5,13.7
			c0.2,4.7,0.3,9.4,0.5,14.1c0.1,2.9,0.5,5.7,0.7,8.6c0,0.2,0.1,0.4,0.2,0.8c0.3-0.4,0.5-0.7,0.6-1c0.6-1.4,1.2-2.8,1.8-4.2
			c1.6-3.7,3.8-7,6.5-10c0.8-0.9,1.5-1.8,2.4-2.8c-3.9-3.2-4.8-7.6-5.2-12.1c-0.6-5.7,0.5-11.2,3.4-16.3c0.4-0.6,0.7-1.3,1.2-1.8
			c1.6-1.9,4-2.1,5.7-0.2c0.9,0.9,1.6,2.1,2,3.3c0.6,2.2,1,4.5,1.4,6.7c0.8,4.7,0,9.2-1.3,13.7c-0.1,0.2-0.1,0.5-0.3,0.9
			c0.5-0.2,0.8-0.2,1.1-0.4c4.1-1.6,8.4-2.9,12.7-3.6c1.6-0.2,3.2-0.3,4.8-0.1c1,0.1,2.1,0.7,3,1.3c1.4,0.9,1.7,2.6,1,4.2
			c-0.5,1.2-1.5,2.1-2.6,2.9c-2.4,1.7-5.1,2.5-7.9,3.1c-4.2,0.9-8.4,1.3-12.7,1.6c-1.5,0.1-3,0.2-4.5,0.3c-0.3,0-0.7,0.2-0.9,0.4
			c-2.1,2.3-4.1,4.6-5.5,7.4c-0.1,0.1-0.1,0.3-0.1,0.4C203.8,233.7,203.8,233.7,203.9,233.8z M157.5,253.8c0.1,0.7,0.1,1.1,0.2,1.6
			c0.9,5.1,1.7,10.2,2.6,15.2c0.3,1.6,0.7,2,2.3,2.2c2.6,0.2,5.2,0.5,7.8,0.6c7.9,0.3,15.8,0.4,23.7,0.7c5.1,0.2,10.2,0.3,15.3,0.5
			c4.9,0.2,9.9,0.2,14.8-0.5c2.6-0.4,3.8-1.5,4.2-4.1c0-0.1,0-0.2,0-0.3c0.4-3.8,0.8-7.6,1.2-11.3c0.2-1.6,0.2-3.2,0.3-5
			C205.7,254.9,181.7,255.3,157.5,253.8z M169.1,288.2c1.8-0.6,3.2-1.3,4.4-2.4c0.8-0.8,1.5-1.6,2.3-2.3c1.2-1.2,2.3-1.2,3.6-0.2
			c0.6,0.5,1.2,1.2,1.7,1.8c1.8,2.1,4.1,3.2,6.7,3.6c2.6,0.4,4.9-0.1,6.3-2.6c0.2-0.3,0.4-0.5,0.6-0.8c0.9-1.1,1.8-1.2,3.1-0.5
			c0.3,0.2,0.6,0.4,0.9,0.6c2.8,2,6,2.9,9.4,3c2.9,0.1,5.6-0.8,8.4-2c0.3-2.8,0.6-5.5,0.9-8.5c-16.6-0.1-32.9-1.2-49.6-1.3
			C168.2,280.6,168.6,284.3,169.1,288.2z M198.4,298.8c-0.5,0.3-0.9,0.6-1.3,0.9c-2.2,1.3-4.7,2.2-7.3,1.9c-2.4-0.3-4.7-0.7-7-1.4
			c-2.1-0.6-4.1-1.7-6.3-2.6c-0.7,0.5-1.4,1.3-2.3,1.8c-0.9,0.5-1.9,0.9-3,1.4c0.4,1.8,0.8,3.7,1.3,5.6c0.2,1,0.9,1.6,2,1.7
			c0.4,0,0.8,0.2,1.2,0.1c6.7-0.2,13.3-0.4,20-0.5c3.9-0.1,7.9,0,11.9,0.1c1.4,0,2.8,0.3,4.2,0.4c1.1,0.1,1.4-0.1,1.8-1.1
			c0.4-1.2,0.7-2.4,0.9-3.6c0.2-0.9,0.3-1.9,0.4-3.1C209,301.7,203.6,301.2,198.4,298.8z M170.7,297.1c1.5-0.1,2.4-1,3.3-1.8
			c1.9-1.7,2.8-1.8,4.9-0.5c2.3,1.5,4.9,2.3,7.5,2.9c3.8,0.9,7.3,0.8,10.5-1.9c0.9-0.8,2-0.6,3.1-0.1c1,0.5,2,0.9,3,1.2
			c4.1,1.3,8.2,1.1,12.4,0.1c0.2-2.2,0.5-4.4,0.8-6.8c-6.9,2.5-13.3,1.8-19.2-2c-0.4,0.5-0.7,0.8-1,1.2c-1.3,1.5-3,2.4-5,2.6
			c-4.5,0.4-8.3-0.9-11.5-4.1c-0.5-0.5-1-1.1-1.6-1.7c-2.2,2.7-4.8,4.4-8,5.3C170,293.5,170.3,295.3,170.7,297.1z M210.7,193.2
			c-0.4,0.5-0.7,0.8-0.9,1.2c-3.8,6.8-4.5,13.9-1.8,21.2c0.3,0.9,1,1.7,1.5,2.5c0.2,0.3,0.6,0.5,1,0.7c0.2-0.3,0.3-0.5,0.3-0.7
			c0.4-1,0.8-1.9,1.2-2.9c2.3-6.3,2.4-12.7,0.6-19.2C212.2,195,211.8,194,210.7,193.2z M199.9,243.3c0.2,0,0.4,0.1,0.5,0
			c3.5-0.8,7-1.7,10.4-2.6c3.1-0.8,6-2,8.6-4c0.6-0.4,1.1-0.9,1.6-1.5c0.8-1,0.6-1.9-0.4-2.5c-0.9-0.5-2-0.8-3.1-0.9
			c-1.8-0.2-3.5,0.3-5.1,1c-4.1,1.8-7.8,4.2-11.1,7.4C200.3,241.1,200,242.1,199.9,243.3z M163.3,235.1c3.4,0.9,20.6,0.1,22.9-1
			c-0.8-0.9-1.7-1.7-2.4-2.6c-0.5-0.6-1.1-0.9-1.9-0.9c-2.8,0.1-5.5,0.1-8.3,0.4c-3,0.3-5.9,1.1-8.5,2.8
			C164.5,234.2,164,234.6,163.3,235.1z M190.9,200.3c0.1,0,0.1-0.1,0.2-0.1c-1.2-2.6-2.3-5.3-3.7-7.9c-2.3-4.3-5.1-8.2-9-11.3
			c-0.5-0.4-1.2-0.8-1.7-1.2c-0.1,0.1-0.2,0.1-0.3,0.2c0.1,0.6,0.1,1.3,0.3,1.9c1.8,5.2,4.6,9.9,8.6,13.7
			C187.1,197.4,189,198.8,190.9,200.3z M211.8,221.9c1.7-0.1,3-0.2,4.3-0.3c3.4-0.4,6.8-0.8,10.2-1.3c2.4-0.4,4.7-1.1,6.7-2.4
			c0.8-0.5,1.6-1,1.9-2c-1.3-1.1-2.8-1-4.2-0.8c-5.7,0.9-11.2,2.3-16.3,5.1c-0.6,0.3-1.2,0.5-1.8,0.8
			C212.4,221.1,212.3,221.4,211.8,221.9z M178.7,200.8c-1.8,6.2,0.6,18.3,4.1,23C182.4,215.9,181.5,208.3,178.7,200.8z M200.5,173
			c-3.9,6-4.9,12.8-5.2,19.8C198.3,186.5,200.3,180,200.5,173z"/>
		<g>
			<path class="st17" d="M157.5,253.8c24.2,1.5,48.2,1.1,72.4-0.3c-0.1,1.8-0.2,3.4-0.3,5c-0.4,3.8-0.8,7.6-1.2,11.3
				c0,0.1,0,0.2,0,0.3c-0.4,2.5-1.6,3.7-4.2,4.1c-4.9,0.7-9.9,0.7-14.8,0.5c-5.1-0.2-10.2-0.4-15.3-0.5c-7.9-0.2-15.8-0.4-23.7-0.7
				c-2.6-0.1-5.2-0.4-7.8-0.6c-1.6-0.2-2.1-0.6-2.3-2.2c-0.9-5.1-1.7-10.2-2.6-15.2C157.6,254.9,157.6,254.5,157.5,253.8z"/>
			<path class="st17" d="M169.1,288.2c-0.5-3.9-0.9-7.7-1.4-11.6c16.6,0.1,33,1.2,49.6,1.3c-0.3,3-0.6,5.7-0.9,8.5
				c-2.7,1.2-5.4,2.1-8.4,2c-3.4-0.1-6.6-1-9.4-3c-0.3-0.2-0.6-0.4-0.9-0.6c-1.2-0.7-2.1-0.5-3.1,0.5c-0.2,0.2-0.4,0.5-0.6,0.8
				c-1.5,2.5-3.7,3-6.3,2.6c-2.6-0.4-4.9-1.6-6.7-3.6c-0.5-0.6-1.1-1.3-1.7-1.8c-1.3-1.1-2.4-1-3.6,0.2c-0.8,0.8-1.5,1.6-2.3,2.3
				C172.3,286.9,170.9,287.6,169.1,288.2z"/>
			<path class="st17" d="M198.4,298.8c5.3,2.4,10.6,2.9,16.4,1.8c-0.2,1.2-0.2,2.2-0.4,3.1c-0.3,1.2-0.5,2.4-0.9,3.6
				c-0.3,1-0.7,1.2-1.8,1.1c-1.4-0.1-2.8-0.4-4.2-0.4c-3.9-0.1-7.9-0.2-11.9-0.1c-6.7,0.1-13.3,0.3-20,0.5c-0.4,0-0.8-0.1-1.2-0.1
				c-1.1-0.1-1.7-0.7-2-1.7c-0.4-1.9-0.9-3.7-1.3-5.6c1.1-0.5,2.1-0.9,3-1.4c0.9-0.5,1.6-1.3,2.3-1.8c2.2,0.9,4.2,1.9,6.3,2.6
				c2.3,0.7,4.6,1.1,7,1.4c2.6,0.3,5-0.6,7.3-1.9C197.5,299.4,197.9,299.1,198.4,298.8z"/>
		</g>
		<path class="st38" d="M170.7,297.1c-0.3-1.9-0.6-3.7-1-5.6c3.1-1,5.8-2.7,8-5.3c0.6,0.6,1.1,1.2,1.6,1.7c3.2,3.2,7,4.5,11.5,4.1
			c2-0.2,3.7-1.1,5-2.6c0.3-0.4,0.6-0.7,1-1.2c6,3.9,12.3,4.5,19.2,2c-0.3,2.4-0.5,4.6-0.8,6.8c-4.2,1-8.3,1.1-12.4-0.1
			c-1-0.3-2-0.8-3-1.2c-1.1-0.5-2.1-0.7-3.1,0.1c-3.1,2.7-6.7,2.8-10.5,1.9c-2.6-0.6-5.2-1.5-7.5-2.9c-2.1-1.3-3-1.1-4.9,0.5
			C173,296.1,172.2,297,170.7,297.1z"/>
		<g>
			<path class="st36" d="M210.7,193.2c1.2,0.8,1.6,1.8,1.9,2.9c1.8,6.5,1.7,12.9-0.6,19.2c-0.4,1-0.8,1.9-1.2,2.9
				c-0.1,0.2-0.2,0.4-0.3,0.7c-0.4-0.3-0.8-0.4-1-0.7c-0.6-0.8-1.2-1.6-1.5-2.5c-2.6-7.3-2-14.4,1.8-21.2
				C210,194,210.3,193.7,210.7,193.2z"/>
			<path class="st36" d="M199.9,243.3c0.1-1.2,0.4-2.2,1.3-3.1c3.3-3.1,7-5.6,11.1-7.4c1.6-0.7,3.4-1.2,5.1-1
				c1.1,0.1,2.1,0.5,3.1,0.9c1.1,0.6,1.2,1.5,0.4,2.5c-0.4,0.6-1,1.1-1.6,1.5c-2.5,2-5.5,3.2-8.6,4c-3.5,0.9-6.9,1.7-10.4,2.6
				C200.2,243.4,200.1,243.4,199.9,243.3z"/>
			<path class="st36" d="M163.3,235.1c0.7-0.5,1.2-1,1.8-1.4c2.6-1.7,5.5-2.5,8.5-2.8c2.7-0.3,5.5-0.2,8.3-0.4
				c0.8,0,1.4,0.2,1.9,0.9c0.8,0.9,1.6,1.8,2.4,2.6C183.9,235.3,166.7,236.1,163.3,235.1z"/>
			<path class="st36" d="M190.9,200.3c-1.9-1.5-3.8-2.9-5.5-4.5c-4-3.8-6.8-8.5-8.6-13.7c-0.2-0.6-0.2-1.3-0.3-1.9
				c0.1-0.1,0.2-0.1,0.3-0.2c0.6,0.4,1.2,0.7,1.7,1.2c3.8,3.1,6.7,6.9,9,11.3c1.3,2.6,2.5,5.2,3.7,7.9
				C191,200.2,190.9,200.3,190.9,200.3z"/>
			<path class="st36" d="M211.8,221.9c0.4-0.5,0.5-0.8,0.8-0.9c0.6-0.3,1.3-0.5,1.8-0.8c5.1-2.8,10.6-4.2,16.3-5.1
				c1.4-0.2,2.9-0.3,4.2,0.8c-0.3,1-1.1,1.5-1.9,2c-2,1.4-4.3,2-6.7,2.4c-3.4,0.6-6.8,0.9-10.2,1.3
				C214.9,221.8,213.5,221.8,211.8,221.9z"/>
			<path class="st36" d="M178.7,200.8c2.8,7.5,3.7,15.1,4.1,23C179.3,219,176.9,207,178.7,200.8z"/>
			<path class="st36" d="M200.5,173c-0.2,7-2.2,13.5-5.2,19.8C195.6,185.8,196.6,179,200.5,173z"/>
		</g>
	</g>
	<g>
		<path class="st27" d="M88,228.1c0.1-0.3,0.1-0.7,0.2-1.1C88.2,227.4,88.1,227.7,88,228.1z"/>
		<path class="st27" d="M88.4,225.9c0.1-0.4,0.2-0.8,0.3-1.2C88.6,225.1,88.5,225.5,88.4,225.9z"/>
		<path class="st27" d="M90.3,219.3c0.1-0.4,0.3-0.8,0.4-1.2C90.6,218.5,90.4,218.9,90.3,219.3z"/>
		<path class="st27" d="M89,223.7c0.1-0.4,0.2-0.8,0.3-1.2C89.2,222.9,89.1,223.3,89,223.7z"/>
		<path class="st27" d="M89.6,221.5c0.1-0.4,0.3-0.8,0.4-1.2C89.8,220.7,89.7,221.1,89.6,221.5z"/>
		<path class="st27" d="M92,214.8c0.3-0.7,0.7-1.5,1-2.2C92.7,213.3,92.3,214.1,92,214.8z"/>
		<path class="st27" d="M91.1,217c0.2-0.4,0.4-0.9,0.5-1.3C91.5,216.2,91.3,216.6,91.1,217z"/>
		<path d="M134.7,220.5c-0.6,0.2-1.2,0.6-1.8,0.9c-0.4,0.2-0.7,0.4-1.1,0.6c0-1.2,0.1-2.3,0-3.4c-0.3-5.9-2-11.6-4.3-17
			c-0.9-2.2-2.4-4.2-4.4-5.6c-1.6-1.2-2.9-0.8-3.8,1c-0.5,1-0.8,2-1.2,3.1c-1.2,3.2-2.3,6.5-3.5,9.7c-0.2,0.6-0.6,1.1-1.1,2
			c-0.2-0.7-0.4-1-0.4-1.4c-0.3-1.6-0.6-3.3-1-4.9c-1.1-4.4-2.8-8.5-5.3-12.3c-0.9-1.4-1.9-2.6-3.4-3.4c-2.1-1.2-4-0.4-4.8,1.9
			c-0.1,0.4-0.2,0.8-0.3,1.2c-0.3,2-0.6,4-0.9,6c-0.5,3.9-1.1,7.7-1.6,11.9c-1-1-1.9-1.6-3.1-1.4c-3.6,0.5,1.1-2.6-11.3-24.8
			c-0.4-0.8-1.1-1.4-1.8-2c-1.6-1.3-3.4-0.8-4.2,1.1c-0.4,0.8-0.6,1.8-0.7,2.7c-0.9,5.8-1.6,11.6-1.8,17.4
			c-0.2,7.3,0.1,14.6,1.4,21.8c0.4,1.9,0.8,3.8,1.3,6.1c-0.5-0.6-0.8-0.9-1.1-1.2c-3.3-3.9-7-7.3-11.7-9.5c-1.3-0.6-2.7-1.1-4.1-1.4
			c-2.1-0.3-4.2,0.6-4.6,3.4c-0.1,0.9-0.1,1.9,0.1,2.8c0.6,3.5,1.9,6.7,3.5,9.8c2.6,5.2,5.2,10.6,9.1,15.1c0,0,0,0.2-0.1,0.3
			c-0.6,0-1.1-0.1-1.7-0.1c-1.7-0.2-3.4-0.4-5.1-0.5c-4.6-0.3-1.3,12.9-0.1,20.2c0.2,1.3,0.5,2.6,0.9,3.8c0.3,1.2,0.9,1.5,1.9,1.6
			c1.6,0.1,3.2,0.3,4.8,0.4c0.1,0.6,0.1,1,0.2,1.4c0.2,2.2,0.4,4.4,0.7,6.5c0.9,5.8,1.7,11.5,2.7,17.3c0.3,2,0.8,4.1,1.4,6.1
			c0.6,2.2,2.3,3.5,4.6,3.7c1.9,0.2,3.8,0.2,5.8,0.2c1.7,0,3.4-0.1,5.2-0.2c2.7-0.1,5.4-0.2,8.1-0.3c3.9-0.1,7.7-0.2,11.6-0.1
			c2,0,3.9,0.3,5.9,0.6c3.5,0.5,5.2-0.6,6.3-3.9c0.4-1.3,0.8-2.7,0.9-4.1c0.9-7.2,1.7-14.4,2.5-21.6c0.2-1.4,0.3-2.8,0.5-4.1
			c1.8-0.2,3.4-0.4,4.9-0.7c2.3-0.4,4.1-1.6,5.1-3.7c0.5-1.1,0.8-2.4,1-3.6c0.4-2.7,0.6-5.4,0.9-8.1c0.9-10.8,1.3-11.7-2.2-11.6
			c-1.7,0-3.3,0.1-5,0.2c-0.3,0-0.7-0.1-1-0.1c1.2-1.7,2.3-3.4,3.5-5c3.9-5.4,6.4-11.5,8.1-18c0.3-1.1,0.5-2.4,0.5-3.5
			C139.4,221.1,137.2,219.6,134.7,220.5z M121.8,199.3c1.3,1.4,2.4,2.8,3,4.5c1.4,3.9,2.7,7.8,3.3,11.9c0.5,3.4,0.3,6.7-0.7,10
			c-0.1,0.3-0.3,0.7-0.5,0.9c-2.8,3.3-5.2,6.9-7.4,10.6c-0.1,0.2-0.2,0.3-0.6,0.8c0.7-3.6,1.4-6.8,2-10c0.7-3.7,1.1-7.5,0.8-11.3
			c0-0.3,0-0.6-0.1-0.9c-0.4-2.8-1.5-3.8-4.2-4.1C118.9,207.6,120.4,203.5,121.8,199.3z M113.4,220.8c1-1.6,2.2-3,3.4-4.5
			c0.3-0.4,0.8-0.8,1.2-1.1c0.1,0,0.2,0.1,0.4,0.1c0.1,1,0.3,2,0.3,3c0,4-0.6,7.9-1.3,11.8c-1.1,6.1-3,12-4.7,18
			c-0.4,1.5-0.4,1.5,0,3.1c-4,0.1-8,0.2-11.9,0.3c-0.1-0.2-0.1-0.4-0.1-0.4C103.3,240.3,107.2,230.1,113.4,220.8z M97.9,215.5
			c1.2-1.9,1-4.1,1.3-6.2c0.8-5.1,1.5-10.3,2.2-15.5c0-0.3,0.2-0.7,0.3-1.1c1,0.3,1.5,1.1,2,1.8c1.9,2.6,3.2,5.5,4.2,8.5
			c1.7,4.9,2.3,10,3,15.1c0,0.3-0.1,0.6-0.3,0.9c-4.1,6.1-7.3,12.7-10.1,19.6c-0.1-1.8-0.2-3.6-0.3-5.4c-0.3-5.7-0.8-11.3-2.3-16.8
			C97.9,216.1,97.8,215.7,97.9,215.5z M93,212.6c0.5,1,0.8,1.6,1,2.3c1.3,3.5,1.9,7.2,2.4,11c0.7,6.1,0.9,12.3,0.8,18.4
			c0,2-0.2,4.1-0.3,6.1c0,0.4-0.1,0.7-0.2,1c-3.7,0-7.4,0-11.2,0c0-0.5,0-0.9,0-1.3c0.7-6.6,1.4-13.3,2.2-19.9
			c0.1-0.7,0.2-1.4,0.3-2.1c0.1-0.3,0.1-0.7,0.2-1.1c0.1-0.4,0.1-0.7,0.2-1.1c0.1-0.4,0.2-0.8,0.3-1.2c0.1-0.3,0.1-0.6,0.2-1
			c0.1-0.4,0.2-0.8,0.3-1.2c0.1-0.3,0.2-0.7,0.3-1c0.1-0.4,0.3-0.8,0.4-1.2c0.1-0.3,0.2-0.7,0.3-1c0.1-0.4,0.3-0.8,0.4-1.2
			c0.1-0.3,0.2-0.7,0.4-1c0.2-0.4,0.4-0.9,0.5-1.3c0.1-0.3,0.2-0.6,0.4-0.9C92.3,214.1,92.7,213.3,93,212.6z M76.5,197.6
			c0.3-3.5,0.8-7,1.3-10.5c0-0.3,0.2-0.7,0.4-1.3c0.4,0.6,0.8,1.1,1,1.6c15,31,7.6,23.3,4.8,45.7c-0.3,2.1-0.5,4.2-0.7,6.4
			c-0.1,0.4-0.2,0.9-0.5,1.4c-0.7-1.6-1.5-3.3-2.2-4.9c-2.4-5.8-3.6-11.8-4.1-18C75.9,211.1,75.9,204.3,76.5,197.6z M58.1,228.2
			c-0.6-1.7-1.1-3.4-0.7-5.2c1.3-0.3,2.3,0.1,3.2,0.6c2.1,1.2,4.2,2.4,6.1,3.8c3.9,3,7,6.7,9.2,11.1c2,4,3.7,8.2,5.5,12.2
			c0.1,0.1,0,0.3,0,0.5c-2.9,0-5.8,0-8.5,0c-0.9-0.7-1.7-1.3-2.4-1.9c-0.9-0.8-1.9-1.6-2.6-2.6C63.9,240.9,60.5,234.8,58.1,228.2z
			 M116.4,306.8c-0.4,1.5-0.7,1.7-2.3,1.4c-4.9-0.7-9.8-0.8-14.8-0.6c-6.2,0.2-12.4,0.4-18.6,0.6c-1.2,0-2.5-0.1-3.7-0.2
			c-1-0.1-1.5-0.7-1.7-1.5c-0.5-1.9-0.9-3.7-1.3-5.6c3-1.9,5.8-3.6,8.6-5.3c2.7,1.7,5.4,3.4,8,5c0.4,0.2,0.7,0.5,1,0.7
			c2.7,1.8,4.1,1.8,6.8-0.3c1.1-0.9,2.1-1.8,3.2-2.8c0.9-0.8,1.7-1.6,2.6-2.4c1.8-1.6,1.8-1.6,3.9-0.5c2.5,1.3,4.9,2.7,7.4,4.1
			c0.7,0.4,1.4,1,2.2,1.7C117.3,302.9,117,304.9,116.4,306.8z M118.2,297c-0.5-0.2-0.8-0.4-1.2-0.6c-3.1-1.7-6.1-3.3-9.2-5
			c-1.1-0.6-2.3-0.6-3.4,0.2c-1.4,1-2.7,2.1-4,3.2c-1.4,1.2-2.7,2.5-4.1,3.6c-1.3,1.1-1.5,1-2.9,0.2c-3-1.9-6.1-3.8-9.1-5.7
			c-1.2-0.8-2.3-0.8-3.5,0c-1.9,1.2-3.8,2.4-5.7,3.5c-0.5,0.3-1,0.6-1.6,1c-0.8-1.2-1-2.4-1-3.7c-0.1-2.8-0.6-2,1.9-3.5
			c2.5-1.5,5.2-2.7,7.7-4.1c0.8-0.5,1.4-0.3,2.1,0.3c2.2,1.8,4.4,3.5,6.6,5.2c0.4,0.3,0.8,0.5,1.2,0.8c1.6,1,3.1,0.9,4.6-0.4
			c1.3-1.2,2.4-2.4,3.6-3.7c2.9-3.3,2.9-3.4,7.3-2.3c2.2,0.6,4.4,1.2,6.5,2c1.7,0.6,3.2,1.6,4.9,2.4
			C118.7,292.7,118.5,294.7,118.2,297z M119.3,286.5c-2.6-1-5-2-7.5-2.8c-2.4-0.7-4.8-1.2-7.3-1.7c-1.5-0.3-2.8,0-3.9,1.1
			c-1,1-2,2.1-3,3.1c-1.1,1.1-2.3,2.2-3.6,3.5c-1-0.7-2.1-1.5-3.1-2.3c-1.6-1.3-3.3-2.6-4.8-4c-1.6-1.4-3.1-1.6-5-0.6
			c-2.6,1.4-5.3,2.7-7.9,4.1c-0.3,0.2-0.6,0.3-1.1,0.6c-0.7-3.6-1.1-7.2-1.3-10.9c16.5,0.1,32.8,1.2,49.4,1.3
			C119.9,280.9,119.6,283.7,119.3,286.5z M132.7,253.5c0,0.5,0.1,0.9,0.1,1.3c-0.2,2.9-0.5,5.8-0.8,8.7c-0.2,1.7-0.3,3.3-0.5,5
			c-0.1,0.6-0.1,1.1-0.2,1.7c-0.5,2.6-1.6,3.6-4.2,4c-4.9,0.7-9.9,0.7-14.8,0.5c-5.2-0.2-10.3-0.4-15.5-0.5
			c-7.9-0.2-15.7-0.4-23.6-0.7c-2.5-0.1-5.1-0.4-7.6-0.6c-1.7-0.2-2.2-0.5-2.5-2.2c-0.9-5-1.7-10-2.6-15.1c-0.1-0.5,0-1,0-1.7
			C84.6,255.3,108.6,254.9,132.7,253.5z M135.8,226.2c-1.7,6.2-4,12-7.8,17.2c-1.2,1.6-2.4,3.3-3.6,4.9c-0.6,0.8-1.5,1.5-2.2,2.2
			c-0.1,0.1-0.4,0.2-0.6,0.2c-2,0.1-4,0.2-6.3,0.4c3.1-5.3,6-10.3,9-15.2c2.2-3.7,4.9-7.1,8.1-10.1c0.7-0.6,1.4-1.1,2.1-1.6
			c0.4-0.3,1-0.5,1.8-0.8C136.1,224.5,136,225.4,135.8,226.2z"/>
		<path class="st38" d="M60.5,253.8c0,0.7-0.1,1.2,0,1.7c0.8,5,1.7,10.1,2.6,15.1c0.3,1.7,0.7,2.1,2.5,2.2c2.5,0.2,5.1,0.5,7.6,0.6
			c7.9,0.3,15.7,0.4,23.6,0.7c5.2,0.2,10.3,0.3,15.5,0.5c4.9,0.2,9.9,0.2,14.8-0.5c2.6-0.4,3.7-1.4,4.2-4c0.1-0.6,0.1-1.1,0.2-1.7
			c0.2-1.7,0.4-3.3,0.5-5c0.3-2.9,0.5-5.8,0.8-8.7c0-0.4-0.1-0.8-0.1-1.3C108.6,254.9,84.6,255.3,60.5,253.8z"/>
		<path class="st38" d="M108.1,295.3c-2.1-1.1-2.1-1.1-3.9,0.5c-0.9,0.8-1.8,1.6-2.6,2.4c-1,0.9-2.1,1.9-3.2,2.8
			c-2.6,2.1-4,2.1-6.8,0.3c-0.3-0.2-0.7-0.5-1-0.7c-2.6-1.7-5.3-3.3-8-5c-2.8,1.7-5.5,3.4-8.6,5.3c0.4,1.9,0.8,3.7,1.3,5.6
			c0.2,0.9,0.8,1.5,1.7,1.5c1.2,0.1,2.5,0.3,3.7,0.2c6.2-0.2,12.4-0.3,18.6-0.6c5-0.2,9.9-0.1,14.8,0.6c1.5,0.2,1.9,0,2.3-1.4
			c0.5-1.9,0.9-3.9,1.3-5.8c-0.9-0.7-1.5-1.3-2.2-1.7C113,297.9,110.6,296.6,108.1,295.3z"/>
		<path class="st38" d="M72,287.6c0.5-0.2,0.8-0.4,1.1-0.6c2.6-1.4,5.3-2.7,7.9-4.1c1.9-1.1,3.4-0.8,5,0.6c1.6,1.4,3.2,2.7,4.8,4
			c1,0.8,2.1,1.5,3.1,2.3c1.3-1.2,2.4-2.3,3.6-3.5c1-1,2-2.1,3-3.1c1.1-1.1,2.4-1.5,3.9-1.1c2.4,0.5,4.9,1,7.3,1.7
			c2.5,0.8,5,1.8,7.5,2.8c0.3-2.8,0.6-5.6,0.9-8.5c-16.6-0.1-32.9-1.2-49.4-1.3C70.9,280.4,71.4,284,72,287.6z"/>
		<path class="st44" d="M88.7,224.7c0.1-0.3,0.1-0.6,0.2-1C88.9,224.1,88.8,224.4,88.7,224.7z"/>
		<path class="st44" d="M88.2,227c0.1-0.4,0.1-0.7,0.2-1.1C88.4,226.3,88.3,226.7,88.2,227z"/>
		<path class="st44" d="M87.7,230.2c0.1-0.7,0.2-1.4,0.3-2.1C87.9,228.8,87.8,229.5,87.7,230.2z"/>
		<path class="st44" d="M90.7,218.1c0.1-0.3,0.2-0.7,0.4-1C91,217.4,90.9,217.7,90.7,218.1z"/>
		<path class="st44" d="M89.3,222.5c0.1-0.3,0.2-0.7,0.3-1C89.5,221.9,89.4,222.2,89.3,222.5z"/>
		<path class="st44" d="M92,214.8c-0.1,0.3-0.3,0.6-0.4,0.9C91.8,215.4,91.9,215.1,92,214.8z"/>
		<path class="st44" d="M90,220.3c0.1-0.3,0.2-0.7,0.3-1C90.2,219.6,90.1,220,90,220.3z"/>
		<path class="st17" d="M107.5,285.9c-4.3-1.1-4.3-1-7.3,2.3c-1.1,1.3-2.3,2.5-3.6,3.7c-1.4,1.3-2.9,1.4-4.6,0.4
			c-0.4-0.2-0.8-0.5-1.2-0.8c-2.2-1.7-4.4-3.5-6.6-5.2c-0.7-0.6-1.2-0.7-2.1-0.3c-2.6,1.4-5.2,2.6-7.7,4.1c-2.5,1.5-2,0.7-1.9,3.5
			c0,1.3,0.2,2.5,1,3.7c0.6-0.4,1.1-0.7,1.6-1c1.9-1.2,3.8-2.3,5.7-3.5c1.2-0.8,2.3-0.7,3.5,0c3,1.9,6.1,3.8,9.1,5.7
			c1.4,0.9,1.6,0.9,2.9-0.2c1.4-1.2,2.7-2.4,4.1-3.6c1.3-1.1,2.6-2.2,4-3.2c1.1-0.8,2.3-0.8,3.4-0.2c3.1,1.7,6.1,3.3,9.2,5
			c0.3,0.2,0.7,0.3,1.2,0.6c0.3-2.3,0.5-4.3,0.8-6.7c-1.7-0.8-3.2-1.8-4.9-2.4C111.9,287.1,109.7,286.5,107.5,285.9z"/>
		<g>
			<path class="st36" d="M80.6,235.9c0.7,1.7,1.4,3.3,2.2,4.9c0.3-0.5,0.4-0.9,0.5-1.4c0.2-2.1,0.5-4.2,0.7-6.4
				c2.8-22.5,10.2-14.7-4.8-45.7c-0.2-0.5-0.6-0.9-1-1.6c-0.2,0.6-0.3,0.9-0.4,1.3c-0.4,3.5-1,7-1.3,10.5c-0.6,6.8-0.6,13.5,0,20.3
				C77,224,78.2,230.1,80.6,235.9z"/>
			<path class="st36" d="M91.1,217c-0.1,0.3-0.2,0.7-0.4,1c-0.1,0.4-0.3,0.8-0.4,1.2c-0.1,0.3-0.2,0.7-0.3,1
				c-0.1,0.4-0.3,0.8-0.4,1.2c-0.1,0.3-0.2,0.7-0.3,1c-0.1,0.4-0.2,0.8-0.3,1.2c-0.1,0.3-0.2,0.7-0.2,1c-0.1,0.4-0.2,0.8-0.3,1.2
				c-0.1,0.4-0.1,0.7-0.2,1.1c-0.1,0.4-0.1,0.7-0.2,1.1c-0.1,0.7-0.2,1.4-0.3,2.1c-0.8,6.6-1.5,13.2-2.2,19.9c0,0.4,0,0.8,0,1.3
				c3.8,0,7.5,0,11.2,0c0.1-0.3,0.2-0.7,0.2-1c0.1-2,0.3-4.1,0.3-6.1c0.1-6.2-0.1-12.3-0.8-18.4c-0.4-3.7-1.1-7.4-2.4-11
				c-0.2-0.7-0.6-1.3-1-2.3c-0.4,0.7-0.7,1.5-1,2.2c-0.1,0.3-0.3,0.6-0.4,0.9C91.5,216.2,91.3,216.6,91.1,217z"/>
			<path class="st36" d="M100.3,233.2c0.1,1.8,0.2,3.6,0.3,5.4c2.8-6.9,6-13.5,10.1-19.6c0.2-0.2,0.3-0.6,0.3-0.9
				c-0.7-5.1-1.3-10.2-3-15.1c-1-3-2.4-5.9-4.2-8.5c-0.5-0.7-1-1.5-2-1.8c-0.1,0.4-0.3,0.7-0.3,1.1c-0.7,5.2-1.4,10.3-2.2,15.5
				c-0.3,2.1-0.1,4.3-1.3,6.2c-0.1,0.2,0,0.6,0.1,0.9C99.5,221.8,100,227.5,100.3,233.2z"/>
			<path class="st36" d="M100.6,251.4c3.9-0.1,7.9-0.2,11.9-0.3c-0.4-1.6-0.4-1.6,0-3.1c1.7-5.9,3.6-11.9,4.7-18
				c0.7-3.9,1.4-7.8,1.3-11.8c0-1-0.2-2-0.3-3c-0.1,0-0.2-0.1-0.4-0.1c-0.4,0.4-0.8,0.7-1.2,1.1c-1.2,1.5-2.4,2.9-3.4,4.5
				c-6.2,9.2-10.1,19.5-12.9,30.1C100.5,251.1,100.6,251.2,100.6,251.4z"/>
			<path class="st36" d="M70.4,249.3c0.7,0.6,1.5,1.2,2.4,1.9c2.7,0,5.6,0,8.5,0c0-0.2,0-0.4,0-0.5c-1.8-4.1-3.5-8.2-5.5-12.2
				c-2.2-4.4-5.3-8.1-9.2-11.1c-1.9-1.5-4-2.6-6.1-3.8c-0.9-0.5-1.9-0.9-3.2-0.6c-0.4,1.9,0.1,3.6,0.7,5.2
				c2.3,6.6,5.7,12.7,9.6,18.5C68.5,247.7,69.5,248.5,70.4,249.3z"/>
			<path class="st36" d="M121.7,215.8c0,0.3,0.1,0.6,0.1,0.9c0.3,3.8-0.2,7.6-0.8,11.3c-0.6,3.2-1.3,6.4-2,10
				c0.3-0.4,0.5-0.6,0.6-0.8c2.1-3.8,4.5-7.4,7.4-10.6c0.2-0.3,0.4-0.6,0.5-0.9c1.1-3.3,1.2-6.6,0.7-10c-0.6-4.1-1.9-8-3.3-11.9
				c-0.6-1.7-1.7-3.1-3-4.5c-1.5,4.2-2.9,8.3-4.3,12.4C120.2,212,121.3,213,121.7,215.8z"/>
			<path class="st36" d="M132.3,225.8c-3.2,2.9-5.9,6.3-8.1,10.1c-3,4.9-5.9,9.9-9,15.2c2.3-0.1,4.3-0.2,6.3-0.4
				c0.2,0,0.4-0.1,0.6-0.2c0.8-0.7,1.6-1.4,2.2-2.2c1.3-1.6,2.4-3.2,3.6-4.9c3.8-5.2,6.1-11.1,7.8-17.2c0.2-0.8,0.3-1.7,0.5-2.9
				c-0.8,0.4-1.4,0.5-1.8,0.8C133.7,224.7,133,225.2,132.3,225.8z"/>
		</g>
	</g>
	<g>
		<path d="M369.1,201.6c-4.3-2.9-9.1-4.1-14.3-3.5c-3,0.3-6,0.9-8.9,1.6c-6.7,1.5-13,3.9-19.2,6.9c-0.5,0.2-1,0.4-1.5,0.6
			c3.1-3,6.3-5.9,9.4-8.8c5.8-5.5,10.9-11.6,15-18.5c3.6-6.1,5.7-12.8,7.6-19.6c1.3-4.7,2.1-9.5,2.1-14.3c0-0.7-0.1-1.4-0.3-2
			c-0.5-1.5-2-2-3.3-1c-0.7,0.5-1.3,1.1-1.8,1.7c-6.3,6.8-12.9,13.4-19,20.3c-10.7,12.2-20.3,25.2-28.1,39.6
			c-0.1,0.3-0.3,0.5-0.5,0.8c-0.1,0-0.2-0.1-0.2-0.1c0.2-0.8,0.3-1.5,0.5-2.3c1.8-7.9,3.7-15.8,5.4-23.7c2-9.3,3.7-18.6,5.6-27.9
			c1.6-7.9,2.5-15.9,1.6-23.9c-0.2-1.8-0.6-3.6-1.1-5.3c-0.5-1.4-1.6-2.1-2.8-1.7c-0.7,0.2-1.4,0.7-1.8,1.3
			c-0.8,1.1-1.5,2.3-2.1,3.5c-9.8,19.7-15.9,40.5-16.7,62.6c-0.3,8,0.2,15.9,1.4,23.8c0.3,1.8,0.6,3.6,1,5.5
			c-0.3-0.2-0.5-0.3-0.6-0.4c-4.7-4.1-8.9-8.6-12.3-13.9c-1.3-2.1-2.7-4.1-4.1-6.1c-1.8-2.5-4.1-4.4-7-5.6
			c-4.4-1.8-8.7-1.6-12.6,1.3c-1.8,1.3-3.5,2.8-4.9,4.6c-3,3.6-5.7,7.3-8.6,11c-0.3,0.4-0.6,0.9-0.8,1.4c-0.5,1.4,0.4,2.6,1.8,2.6
			c0.4,0,0.7-0.1,1.1-0.2c2.5-0.5,5-1.1,7.5-1.6c1.7-0.3,3.5-0.6,5.3-0.3c3.2,0.6,6.2,1.7,9,3.4c3.2,2,6.5,4,9.7,5.9
			c2.2,1.3,4.5,2.5,7.1,3.3c1.7,0.5,3.5,2.5,4,4.3c0,0-0.1,0-0.1,0c-0.2-0.1-0.5-0.2-0.7-0.3c-4.9-2.4-10.1-3.6-15.6-3.3
			c-2.4,0.2-4.6,0.8-6.8,1.6c-1,0.4-1.4,1.1-1.3,1.9c0.1,0.8,0.8,1.4,1.8,1.5c0.8,0.1,1.7,0.2,2.5,0.2c1.8,0.1,3.4,0.7,4.8,1.7
			c2.5,1.6,4.7,3.6,6.3,6.2c0.8,1.3,1.6,2.6,2.4,3.9c1.3,2.1,2.8,4.1,4.6,5.9c1.2,1.2,2.2,2.7,3.3,4.1c0.2,0.3,0.3,0.6,0.5,1
			c-0.4,0-0.6,0.1-0.9,0.1c-8.3-0.2-16.7-0.1-25-1.1c-2.7-0.3-3,4.5-2.9,5.2c0.6,3.8,1.1,7.6,1.8,11.4c0.4,2.4,0.9,4.7,1.5,7
			c0.4,1.6,0.9,1.8,2.5,1.9c1.4,0.1,2.8,0.4,4.3,0.5c0.3,2.8,0.5,5.5,0.9,8.1c0.8,5.7,1.7,11.4,2.7,17.1c0.4,2.1,0.9,4.2,1.5,6.2
			c0.6,1.9,1.9,3.1,3.9,3.3c1.6,0.2,3.2,0.4,4.8,0.3c6.2-0.1,12.4-0.4,18.6-0.6c4.9-0.2,9.7,0,14.5,0.7c2.4,0.4,4.1-0.6,5-2.8
			c0.5-1.1,0.8-2.4,1.1-3.6c1.4-7.5,2-15.2,2.8-22.8c0.2-1.5,0.4-3.1,0.5-4.6c1.4-0.2,2.7-0.3,3.9-0.5c1.5-0.2,2.9-0.6,4.2-1.5
			c1.9-1.5,2.7-3.5,2.9-5.8c0.3-2.7,0.6-5.5,0.9-8.2c0.3-3,0.5-6,0.6-9c0.1-1.9-0.7-2.5-2.6-2.5c-0.3,0-0.5,0-0.8,0
			c-4.9,0.2-9.8,0.5-14.7,0.7c-7.5,0.2-15.1,0.4-22.7,0.6c-0.4,0-0.9-0.1-1.5-0.1c0.6-0.8,1-1.5,1.4-2.1c1.9-2.4,3.7-4.9,5.6-7.3
			c1.2-1.5,2.5-3.1,4-4.3c7.6-6.5,16.5-8,26.1-6.6c4.6,0.6,9,2.3,12.8,5c0.7,0.5,1.5,0.9,2.3,1.2c2.1,0.7,3.8-0.6,3.6-2.8
			c0-0.4-0.1-0.7-0.2-1.1c-0.4-1.6-1.2-3-2.6-4c-1.5-1.1-3.1-2.2-4.8-2.9c-6.1-2.3-12.4-3.5-18.9-3.2c-0.5,0-1,0-1.6,0
			c0.7-0.4,1.4-0.6,2.1-0.8c4.7-1.3,9.3-2.6,14-3.7c5.3-1.3,10.4-0.7,15.1,2.6c0.4,0.3,0.9,0.6,1.3,0.9c4.1,2.6,7.7,5.7,11.3,8.8
			c0.6,0.5,1.1,0.9,1.7,1.3c1.2,0.7,2.4,0.3,3-1c0.2-0.4,0.3-0.9,0.3-1.4c0.1-1.3,0.1-2.6,0.1-3.9c0.1-5.6-1-11.1-3-16.3
			C373.7,206.5,372,203.6,369.1,201.6z M321.4,187.6c9.1-12.9,19.4-24.7,30.4-36c1.3-1.3,2.6-2.5,4-3.8c0,0.8,0.1,1.6,0,2.4
			c-0.4,3.9-1.3,7.7-2.4,11.5c-2.2,8-5.3,15.5-10.3,22.2c-3.3,4.4-6.9,8.5-10.8,12.3c-6.5,6.3-13.6,11.9-21,17.2
			c-2.2,1.6-4.5,3.2-6.7,4.8c-0.1-0.1-0.2-0.1-0.3-0.2c0.3-0.8,0.5-1.7,0.9-2.4C309.6,205.7,315.1,196.4,321.4,187.6z M298.3,182.5
			c1-14.3,4.7-28,9.7-41.4c1.9-5.2,4.3-10.3,6.9-15.2c0.2-0.3,0.4-0.6,0.8-0.9c0.1,0.5,0.2,1.1,0.3,1.6c1,7.9,0.3,15.7-1.3,23.4
			c-2,9.8-3.8,19.7-5.9,29.5c-1.7,7.9-3.6,15.8-5.4,23.7c-0.9,4-1.8,8-2.7,12c-0.1,0-0.2,0-0.4,0.1c-0.2-0.7-0.4-1.5-0.5-2.2
			C297.9,203.1,297.6,192.8,298.3,182.5z M289.7,219.8c-2.9-0.6-5.5-1.9-8-3.5c-3.1-1.9-6.1-3.7-9.2-5.6c-2.6-1.6-5.4-2.8-8.3-3.5
			c-3.1-0.8-6.2-0.5-9.3,0c-1.2,0.2-2.4,0.4-3.7,0.7c0-0.2,0.1-0.3,0.1-0.4c2.8-4,5.9-7.8,9.4-11.2c4.1-3.9,9.7-3.5,13.5-0.5
			c1.2,0.9,2.3,2.1,3.3,3.3c1,1.2,1.8,2.4,2.6,3.7c3.9,6.4,8.9,12,14.5,16.9c0.4,0.3,0.7,0.6,1,1c0.1,0.1,0.1,0.2,0.2,0.5
			C293.8,220.7,291.8,220.2,289.7,219.8z M286.5,236.6c-2.2-4.1-5.3-7.3-9.3-9.7c-0.1-0.1-0.2-0.2-0.4-0.5c1.9-0.1,3.6,0.2,5.3,0.5
			c2.8,0.6,5.4,1.5,7.9,2.8c2.9,1.5,4.3,4,4.7,7.1c0.2,1.4,0.1,2.9,0.1,4.4c0,1.8-0.1,3.6-0.2,5.8
			C291.6,243.5,288.5,240.5,286.5,236.6z M323.9,306.1c-0.6,2.3-1,2.5-3.3,2.1c-3.8-0.6-7.6-0.8-11.4-0.7
			c-5.4,0.2-10.7,0.4-16.1,0.6c-2.7,0.1-5.3,0.1-8,0c-2-0.1-2.3-0.4-2.8-2.3c-0.4-1.5-0.7-3-1-4.7c2.1-0.1,3.9-0.2,5.7-0.3
			c5.6-0.3,11.2-0.6,16.9-0.8c5.2-0.1,10.3,0,15.5,0c1.3,0,2.5,0,3.7,0.1c0.6,0,1.2,0.3,1.9,0.4
			C324.6,302.6,324.3,304.4,323.9,306.1z M325.4,297c-4.1-0.1-8.1-0.3-12.1-0.3c-5,0-10.1,0.2-15.1,0.4c-5,0.2-10,0.5-15,0.7
			c-0.4,0-1,0-1.3-0.2c-0.7-0.4-1.4-0.8-1.4-1.9c0-1.3-0.4-2.6-0.7-4c0.6-0.2,1.3-0.6,1.9-0.6c5.3-0.2,10.6-0.4,15.9-0.4
			c6.3,0,12.6,0.2,18.9,0.2c2.9,0,5.7,0,8.6-0.1c0.3,0,0.5,0,1,0.1C325.9,293,325.6,295,325.4,297z M326.5,286.5
			c-1.6,0.9-3.3,0.8-4.9,0.9c-7.7,0.4-15.4,0-23.1,0c-5.1,0-10.2,0.2-15.3,0.3c-1,0-2,0-3,0c-0.6,0-1.1-0.3-1.2-1
			c-0.3-3.1-0.7-6.2-1-9.3c0-0.2,0-0.4,0.1-0.8c16.4,0.5,32.7,1,49.3,1.6C327.1,281,326.8,283.8,326.5,286.5z M302.1,254.8
			c8.3-0.2,16.6-0.4,24.8-0.7c3.8-0.1,7.6-0.4,11.4-0.5c0.5,0,1,0,1.8,0c-0.2,2.4-0.3,4.7-0.5,6.9c-0.3,2.8-0.6,5.7-0.9,8.5
			c0,0.2,0,0.3,0,0.5c-0.4,3.3-1.6,4.5-4.9,4.7c-3,0.2-6,0.4-9,0.4c-7-0.1-14-0.4-21.1-0.6c-8.3-0.2-16.6-0.4-24.8-0.7
			c-2.2-0.1-4.5-0.4-6.7-0.6c-1-0.1-1.4-0.7-1.6-1.6c-0.6-3.3-1.2-6.5-1.8-9.8c-0.3-1.7-0.6-3.5-0.8-5.2c-0.1-0.8-0.1-1.5-0.1-2.3
			c6.6,0.6,13,0.8,19.5,0.9C303.6,254.7,299.6,254.9,302.1,254.8z M331.5,226.5c3.4-0.3,6.7,0.3,10.1,1c2.6,0.5,5.3,1.1,7.7,2.4
			c1.6,0.8,3.1,1.6,4.2,3.5c-0.6-0.2-0.9-0.3-1.1-0.5c-7-4.6-14.8-6.2-23.1-5.4c-6.6,0.6-12.9,2.5-18.1,6.9c-1.8,1.5-3.5,3.2-4.9,5
			c-2.4,3-4.7,6.1-7,9.1c-0.2,0.2-0.4,0.5-0.7,0.8c0.4-6.2,2-11.6,6.5-15.9c2.9-2.8,6.4-4.5,10.3-5
			C320.7,227.6,326.1,227,331.5,226.5z M374.7,228.1c-0.5-0.4-0.9-0.6-1.2-0.9c-3.3-2.9-6.7-5.6-10.4-8c-0.9-0.6-1.8-1.1-2.7-1.6
			c-4.6-2.7-9.6-3.4-14.8-2.3c-4.7,1.1-9.4,2.3-14,3.6c-6.2,1.7-12.5,2.8-18.9,3.1c-1.7,0.1-3.3,0.2-5,0.3c0-0.1-0.1-0.3-0.1-0.4
			c0.8-0.6,1.6-1.3,2.5-1.9c10.6-7.3,21.9-13.3,34.4-16.7c4.4-1.2,8.8-2.2,13.4-2.1c2.5,0.1,4.9,0.7,7.2,1.8
			c2.7,1.2,4.7,3.1,5.9,5.7C373.8,214.9,375,221.2,374.7,228.1z"/>
		<g>
			<g>
				<path class="st38" d="M267.7,253.7c0,0.8,0,1.5,0.1,2.3c0.2,1.8,0.5,3.5,0.8,5.2c0.6,3.3,1.2,6.5,1.8,9.8
					c0.2,0.9,0.7,1.5,1.6,1.6c2.2,0.2,4.4,0.5,6.7,0.6c8.3,0.3,16.6,0.5,24.8,0.7c7,0.2,14,0.5,21.1,0.6c3,0,6-0.2,9-0.4
					c3.3-0.2,4.5-1.5,4.9-4.7c0-0.2,0-0.3,0-0.5c0.3-2.8,0.6-5.7,0.9-8.5c0.2-2.2,0.4-4.4,0.5-6.9c-0.8,0-1.3,0-1.8,0
					c-3.8,0.2-7.6,0.4-11.4,0.5c-8.3,0.3-16.6,0.4-24.8,0.7c-2.4,0.1,1.5-0.1-14.9-0.2C280.8,254.6,274.3,254.3,267.7,253.7z"/>
				<path class="st38" d="M278,277.4c0.3,3.1,0.7,6.2,1,9.3c0.1,0.7,0.5,1,1.2,1c1,0,2,0,3,0c5.1-0.1,10.2-0.3,15.3-0.3
					c7.7,0,15.4,0.4,23.1,0c1.7-0.1,3.3-0.1,4.9-0.9c0.3-2.7,0.6-5.5,0.9-8.4c-16.5-0.5-32.9-1-49.3-1.6
					C278.1,277,278,277.2,278,277.4z"/>
				<path class="st38" d="M319.3,300.1c-5.2,0-10.3-0.1-15.5,0c-5.6,0.1-11.2,0.5-16.9,0.8c-1.8,0.1-3.6,0.2-5.7,0.3
					c0.4,1.6,0.6,3.2,1,4.7c0.5,1.9,0.8,2.2,2.8,2.3c2.7,0.1,5.3,0.1,8,0c5.4-0.1,10.7-0.4,16.1-0.6c3.8-0.1,7.6,0.1,11.4,0.7
					c2.3,0.4,2.7,0.2,3.3-2.1c0.4-1.7,0.7-3.5,1.1-5.5c-0.7-0.2-1.3-0.4-1.9-0.4C321.8,300.1,320.6,300.1,319.3,300.1z"/>
			</g>
			<path class="st17" d="M316.5,290.8c-6.3-0.1-12.6-0.3-18.9-0.2c-5.3,0-10.6,0.2-15.9,0.4c-0.6,0-1.2,0.4-1.9,0.6
				c0.3,1.5,0.6,2.8,0.7,4c0,1.1,0.7,1.5,1.4,1.9c0.4,0.2,0.9,0.2,1.3,0.2c5-0.2,10-0.6,15-0.7c5-0.2,10.1-0.3,15.1-0.4
				c4,0,8,0.2,12.1,0.3c0.2-2,0.4-4,0.7-6.1c-0.5,0-0.8-0.1-1-0.1C322.2,290.8,319.4,290.9,316.5,290.8z"/>
		</g>
		<g>
			<path class="st36" d="M304.2,218c0.1,0.1,0.2,0.1,0.3,0.2c2.2-1.6,4.5-3.2,6.7-4.8c7.4-5.2,14.5-10.8,21-17.2
				c3.9-3.8,7.6-7.9,10.8-12.3c5-6.7,8.1-14.2,10.3-22.2c1-3.8,1.9-7.6,2.4-11.5c0.1-0.8,0-1.7,0-2.4c-1.3,1.3-2.7,2.5-4,3.8
				c-11,11.2-21.3,23.1-30.4,36c-6.3,8.9-11.8,18.2-16.3,28C304.7,216.4,304.5,217.2,304.2,218z"/>
			<path class="st36" d="M365,203.1c-2.3-1-4.7-1.7-7.2-1.8c-4.6-0.1-9,0.9-13.4,2.1c-12.5,3.4-23.8,9.4-34.4,16.7
				c-0.8,0.6-1.6,1.2-2.5,1.9c0,0.1,0.1,0.3,0.1,0.4c1.7-0.1,3.3-0.2,5-0.3c6.4-0.3,12.7-1.4,18.9-3.1c4.7-1.3,9.3-2.6,14-3.6
				c5.2-1.2,10.1-0.5,14.8,2.3c0.9,0.5,1.8,1.1,2.7,1.6c3.7,2.4,7.1,5.1,10.4,8c0.3,0.3,0.7,0.5,1.2,0.9c0.3-6.9-0.9-13.3-3.7-19.3
				C369.7,206.2,367.7,204.3,365,203.1z"/>
			<path class="st36" d="M300.2,215.4c0.1,0,0.2,0,0.4-0.1c0.9-4,1.8-8,2.7-12c1.8-7.9,3.8-15.8,5.4-23.7c2.1-9.8,3.9-19.7,5.9-29.5
				c1.6-7.8,2.2-15.6,1.3-23.4c-0.1-0.5-0.2-1.1-0.3-1.6c-0.5,0.3-0.7,0.6-0.8,0.9c-2.6,4.9-4.9,10-6.9,15.2
				c-5,13.4-8.7,27.1-9.7,41.4c-0.7,10.3-0.4,20.5,1.4,30.7C299.8,214,300,214.7,300.2,215.4z"/>
			<path class="st36" d="M295.8,220.6c-0.3-0.3-0.7-0.6-1-1c-5.7-4.9-10.6-10.4-14.5-16.9c-0.8-1.3-1.6-2.6-2.6-3.7
				c-1-1.2-2.1-2.4-3.3-3.3c-3.9-3-9.4-3.4-13.5,0.5c-3.6,3.4-6.6,7.2-9.4,11.2c-0.1,0.1-0.1,0.2-0.1,0.4c1.3-0.2,2.5-0.4,3.7-0.7
				c3.1-0.6,6.2-0.9,9.3,0c2.9,0.8,5.7,1.9,8.3,3.5c3,1.9,6.1,3.8,9.2,5.6c2.5,1.5,5.1,2.9,8,3.5c2.1,0.4,4.1,0.9,6.3,1.4
				C295.9,220.8,295.9,220.7,295.8,220.6z"/>
			<path class="st36" d="M305,233.3c-4.4,4.3-6.1,9.7-6.5,15.9c0.3-0.4,0.5-0.6,0.7-0.8c2.3-3.1,4.6-6.2,7-9.1
				c1.5-1.8,3.2-3.5,4.9-5c5.2-4.4,11.5-6.3,18.1-6.9c8.3-0.7,16,0.9,23.1,5.4c0.3,0.2,0.6,0.3,1.1,0.5c-1.1-1.9-2.7-2.7-4.2-3.5
				c-2.4-1.2-5.1-1.8-7.7-2.4c-3.3-0.7-6.7-1.3-10.1-1c-5.4,0.5-10.8,1.1-16.1,1.8C311.4,228.8,307.9,230.5,305,233.3z"/>
			<path class="st36" d="M294.8,241.3c0-1.5,0-2.9-0.1-4.4c-0.3-3.1-1.7-5.6-4.7-7.1c-2.5-1.3-5.1-2.2-7.9-2.8
				c-1.7-0.4-3.4-0.6-5.3-0.5c0.2,0.2,0.3,0.4,0.4,0.5c4,2.3,7.1,5.6,9.3,9.7c2.1,3.9,5.1,6.9,8.1,10.5
				C294.7,244.9,294.8,243.1,294.8,241.3z"/>
		</g>
	</g>
</g>
</svg>
